<?xml version="1.0" encoding="iso-8859-1"?>
<!-- Generator: Adobe Illustrator 16.0.0, SVG Export Plug-In . SVG Version: 6.00 Build 0)  -->
<!DOCTYPE svg PUBLIC "-//W3C//DTD SVG 1.1//EN" "http://www.w3.org/Graphics/SVG/1.1/DTD/svg11.dtd">
<svg version="1.1" id="Capa_1" xmlns="http://www.w3.org/2000/svg" xmlns:xlink="http://www.w3.org/1999/xlink" x="0px" y="0px"
	 width="79.536px" height="79.536px" viewBox="0 0 79.536 79.536" style="enable-background:new 0 0 79.536 79.536;"
	 xml:space="preserve">
<g>
	<path style="fill:#010002;" d="M41.053,18.022c-0.425-0.021-0.85-0.07-1.279-0.07c-3.834,0-7.418,0.994-10.545,2.726
		C34.81,1.66,48.747,0,48.747,0S17.966,2.565,17.966,38.484c0.021,0,0.036,0,0.062,0c-0.026,0.424-0.062,0.849-0.062,1.284
		c0,3.821,0.991,7.415,2.718,10.542C1.66,44.718,0,30.787,0,30.787s2.561,30.792,38.489,30.792c0-0.031,0-0.041,0-0.072
		c0.425,0.021,0.85,0.072,1.284,0.072c3.826,0,7.41-0.994,10.537-2.724c-5.582,19.024-19.519,20.682-19.519,20.682
		s30.786-2.568,30.786-38.484c-0.021,0-0.041,0-0.062,0c0.021-0.43,0.062-0.849,0.062-1.284c0-3.83-0.988-7.417-2.724-10.54
		c19.024,5.587,20.682,19.519,20.682,19.519S76.979,17.96,41.053,17.96C41.053,17.986,41.053,18.002,41.053,18.022z"/>
</g>
<g>
</g>
<g>
</g>
<g>
</g>
<g>
</g>
<g>
</g>
<g>
</g>
<g>
</g>
<g>
</g>
<g>
</g>
<g>
</g>
<g>
</g>
<g>
</g>
<g>
</g>
<g>
</g>
<g>
</g>
</svg>
